# xmcd
#
# Track frame offsets: 
#        150
#        13984
#        27116
#        40455
#        53026
#        66716
#        83098
#        98386
#        111420
#        123928
#        136304
#        148933
#        162229
#        174828
#        189215
#        202180
#        212869
#        223119
#        235836
#        246156
#        260629
#        273060
#
# Disc length: 3811 seconds
#
# Revision: 0
# Processed by: cddbd v1.5.2PL0 Copyright (c) Steve Scherf et al.
# Submitted via: ExactAudioCopyFreeDBPlugin 1.0
#
DISCID=470ee116
DTITLE=Wiseman Sextette-Quartet - Complete Recorded Works (1923)
DYEAR=1997
DGENRE=Gospel
TTITLE0=You Better Run
TTITLE1=Hush! Somebody's Calling My Name [6050]
TTITLE2=Witness
TTITLE3=Lord, I Can't Stay Away
TTITLE4=On Calvary
TTITLE5=Shine on Me
TTITLE6=I Couldn't Hear Nobody Pray [6062]
TTITLE7=Ain't It a Shame to Work on Sunday? [6066]
TTITLE8=Do You Think I'll Make a Soldier
TTITLE9=I Have a Mother in the Rock of Ages
TTITLE10=You Must Come In at the Door [6077]
TTITLE11=Hard Tryin'
TTITLE12=Sign of Judgement
TTITLE13=Lord, I Want to Be a Christian
TTITLE14=A Great Camp Meeting
TTITLE15=I Know I've Been Changed
TTITLE16=You Must Come In at the Door [28175-2]
TTITLE17=Ain't It a Shame to Work on Sunday? [28173]
TTITLE18=You Must Come In at the Door [28175-3]
TTITLE19=Golden Slippers
TTITLE20=Hush, Somebody's Calling My Name [28172-6]
TTITLE21=Hard Trials
EXTD=
EXTT0=
EXTT1=
EXTT2=
EXTT3=
EXTT4=
EXTT5=
EXTT6=
EXTT7=
EXTT8=
EXTT9=
EXTT10=
EXTT11=
EXTT12=
EXTT13=
EXTT14=
EXTT15=
EXTT16=
EXTT17=
EXTT18=
EXTT19=
EXTT20=
EXTT21=
PLAYORDER=
